<?xml version="1.0" encoding="utf-8"?>
<!-- Generator: Adobe Illustrator 23.0.3, SVG Export Plug-In . SVG Version: 6.00 Build 0)  -->
<svg version="1.1" id="Layer_1" xmlns="http://www.w3.org/2000/svg" xmlns:xlink="http://www.w3.org/1999/xlink" x="0px" y="0px"
	 viewBox="0 0 1280 415.5" enable-background="new 0 0 1280 415.5" xml:space="preserve">
<g>
	<path fill="#333333" d="M23.07,397.44V14.73H112v382.71H23.07z"/>
	<path fill="#FF4757" d="M158.01,322.13c0-25.7,9.85-46.52,29.56-62.46c19.7-15.94,49.35-23.9,88.93-23.9
		c23.47,0,44.89,3.34,64.26,10.02c-1.03-11.99-6.81-21.46-17.35-28.4c-10.54-6.94-25.06-10.41-43.57-10.41
		c-5.65,0-11.4,0.35-17.22,1.03c-5.83,0.69-11.35,1.54-16.58,2.57c-5.23,1.03-10.33,2.14-15.29,3.34c-4.97,1.2-9.38,2.44-13.24,3.73
		s-7.16,2.44-9.9,3.47c-2.74,1.03-5.06,1.89-6.94,2.57l-2.57,1.03l-24.67-73c3.94-2.06,9.29-4.5,16.06-7.33
		c6.77-2.83,20.09-6.72,39.97-11.69c19.88-4.97,38.72-7.45,56.55-7.45c50.89,0,87.56,10.45,110.01,31.36
		c22.45,20.91,33.67,54.32,33.67,100.24v140.59h-42.67l-23.13-35.21h-1.54c-19.71,28.79-52.52,43.18-98.44,43.18
		c-31.19,0-56.63-7.84-76.34-23.52C167.86,366.21,158.01,346.29,158.01,322.13z M337.67,296.43c-12.68-5.65-27.25-8.48-43.69-8.48
		c-15.08,0-26.73,2.74-34.96,8.22c-8.23,5.49-12.34,12.08-12.34,19.79c0,7.37,3.68,13.33,11.05,17.86
		c7.37,4.54,17.65,6.81,30.84,6.81c14.05,0,25.74-3.86,35.08-11.57c9.34-7.71,14.01-16.71,14.01-26.99V296.43z"/>
	<path fill="#333333" d="M562.82,185.91c10.11-19.02,23.34-33.88,39.71-44.59c16.36-10.71,34.57-16.06,54.62-16.06l-0.51,83.28
		c-22.79,0-42.54,6.3-59.24,18.89s-25.06,31.57-25.06,56.93v113.09H483.4V132.71h47.29l31.1,53.2H562.82z"/>
	<path fill="#333333" d="M782.32,262.25v135.2h-88.93V132.71h47.81L768.7,180h2.06c10.45-17.13,24.12-30.54,41-40.22
		c16.88-9.68,35.51-14.52,55.9-14.52c33.75,0,61.21,12.55,82.38,37.65c21.16,25.1,31.57,57.28,31.23,96.51v138.02h-88.93
		l0.51-134.68c0-15.76-5.36-28.74-16.06-38.94c-10.71-10.19-23.95-15.29-39.71-15.29c-15.77-0.34-28.75,4.59-38.94,14.78
		C787.93,233.5,782.67,246.48,782.32,262.25z"/>
	<path fill="#333333" d="M1258.59,321.1c0,26.05-10.28,46.52-30.84,61.43c-20.56,14.91-46.61,22.36-78.14,22.36
		c-47.81,0-91.16-10.19-130.05-30.59l22.62-67.34c30.5,18.68,63.83,27.93,99.98,27.76c20.05,0,30.07-4.2,30.07-12.59
		c0-5.31-2.83-9.34-8.48-12.08c-5.65-2.74-16.71-6.43-33.16-11.05c-30.5-7.71-54.53-18.59-72.1-32.64
		c-17.57-14.05-26.34-33.5-26.34-58.34c0-24.5,9.55-44.42,28.66-59.76c19.1-15.33,49.9-23,92.4-23c13.71,0,30.54,2.19,50.5,6.55
		c19.96,4.37,35.25,9.04,45.88,14.01l-17.48,66.31c-22.79-11.31-48.58-16.88-77.36-16.71c-23.82,0-35.73,4.37-35.73,13.11
		c0,4.29,3.17,7.8,9.51,10.54c6.34,2.74,18.08,6.6,35.21,11.57c32.21,9.08,56.07,20.39,71.58,33.93
		C1250.84,278.1,1258.59,296.94,1258.59,321.1z"/>
</g>
</svg>
